<svg width="600" height="227" viewBox="0 0 600 227" fill="none" xmlns="http://www.w3.org/2000/svg">
<path d="M126.659 13.28C125.909 5.09 120.039 0 111.339 0H111.329C110.599 0 109.649 0.0200037 108.559 0.160004C101.339 1.08 95.8894 5.96 92.7894 14.27C90.5894 20.16 90.3194 25.87 90.2894 26.5L90.1494 30.22C89.1094 31.92 88.2994 33.75 87.7494 35.66C86.2294 40.95 84.3594 49.55 84.0594 60.46L83.9794 63.32C82.4894 65.42 81.1794 67.81 80.0794 70.42C78.7094 73.67 77.6194 76.97 76.5494 81.26L75.7894 65.9C75.6794 59.91 71.1994 22.35 67.5694 9.53999C66.0794 4.29999 61.1594 1.03999 54.7194 1.03999C51.6394 1.03999 48.2794 1.73 45.4994 2.95C31.1094 9.24 32.3094 27.64 35.2894 37.52L36.3194 40.93C36.1894 41.86 36.1394 42.8 36.1594 43.75C36.2994 49.92 37.6994 56.31 40.7794 68.3L41.7094 71.91C41.0194 73.84 40.6294 75.85 40.5394 77.9C40.3294 82.9 40.4494 88.07 40.9194 93.32C40.3794 93.19 39.8394 93.08 39.3194 92.99C39.0794 92.95 38.8494 92.92 38.5994 92.9C37.7594 92.78 37.0794 92.72 36.3994 92.7H36.3194H36.2694H36.2194H36.0794H35.9694H35.9194C35.4694 92.7 35.0794 92.72 34.7794 92.75L34.7394 92.76H34.6894C34.4294 92.77 33.9294 92.78 33.3394 92.86C32.8294 92.93 32.4494 93.02 32.1694 93.08H32.1594C31.6894 93.17 30.9494 93.33 30.0994 93.63C28.8594 94.08 27.8094 94.6 26.8494 95.23L26.7094 95.32L26.6094 95.39L26.5094 95.46L26.3794 95.56C23.1094 98.05 19.8794 100.89 18.3894 104.79C17.3394 107.54 17.1094 110.66 17.7294 114.37C17.4494 114.35 17.1694 114.35 16.8994 114.35C14.1994 114.35 11.4994 115.06 8.8994 116.46C6.2794 117.87 4.7394 119.87 3.3794 121.63L2.9094 122.24C-2.2106 128.81 0.489404 138.07 2.9594 144.47L2.9994 144.58C3.0394 144.68 3.0694 144.75 3.0894 144.81C3.2494 145.28 3.4194 145.76 3.5994 146.24L3.3094 151.51C3.0594 156.01 4.8594 161.31 7.2394 167.77C7.8594 169.44 8.5494 171.32 8.7394 172.12C11.5494 183.54 16.2994 192.54 22.8894 198.89L23.0794 226.31H107.279L103.159 196.93L103.009 195.87C108.579 188.05 112.689 177.01 114.929 163.81C118.379 143.46 116.799 120.39 110.719 101.89C111.759 96.08 113.439 87.92 115.219 79.29L115.279 78.98C116.219 74.44 117.189 69.75 118.059 65.38C118.449 63.43 118.839 61.48 119.219 59.53C119.589 57.63 119.959 55.73 120.319 53.83C120.679 51.93 121.019 50.05 121.359 48.19C121.959 44.92 122.579 41.38 123.279 37.39C123.879 33.93 124.439 30.66 124.949 27.66L125.049 27.06C125.509 24.33 125.939 21.85 126.319 19.68C126.449 18.9 126.549 18.19 126.619 17.49C126.709 16.57 126.749 15.67 126.739 14.82C126.729 14.29 126.699 13.77 126.659 13.28ZM123.179 17.15C123.119 17.76 123.029 18.39 122.909 19.09C122.499 21.42 122.039 24.12 121.539 27.08C121.029 30.08 120.469 33.35 119.869 36.8C119.269 40.25 118.629 43.87 117.959 47.58C117.619 49.44 117.279 51.32 116.919 53.2C116.559 55.09 116.199 56.99 115.829 58.88C115.449 60.83 115.059 62.77 114.669 64.72C113.779 69.17 112.799 73.91 111.829 78.6C109.959 87.66 108.179 96.25 107.159 102.13C113.309 120.29 114.939 143.02 111.509 163.23C109.219 176.72 104.999 187.59 99.3794 194.96L99.7194 197.38L103.299 222.9H98.6694C98.6694 222.9 94.9494 198.04 94.9394 198.05C94.9294 198.05 94.9294 198.06 94.9194 198.06C91.8494 200.02 88.6494 201.27 85.7794 202.07C85.3694 202.18 84.9694 202.29 84.5794 202.39C84.9094 202.27 85.2294 202.14 85.5494 202C96.5594 197.14 104.359 179.18 107.109 157.87C107.329 156.14 107.519 154.39 107.679 152.63C107.749 151.85 107.809 151.08 107.869 150.29C107.999 148.46 108.089 146.62 108.149 144.77C108.149 144.73 108.149 144.69 108.149 144.65C108.569 130.32 106.749 115.41 102.199 102.53C103.029 97.54 104.519 90.19 106.139 82.31C106.229 81.87 106.319 81.43 106.409 80.99C106.769 79.23 107.139 77.44 107.509 75.66C107.789 74.32 108.059 72.98 108.339 71.65C108.889 68.99 109.429 66.35 109.929 63.81C110.319 61.88 110.699 59.94 111.079 58C111.109 57.85 111.139 57.7 111.159 57.55C111.499 55.82 111.829 54.08 112.159 52.36C112.509 50.48 112.859 48.62 113.189 46.77C113.359 45.84 113.519 44.93 113.689 44.02C113.849 43.11 114.009 42.2 114.169 41.31C114.339 40.33 114.509 39.36 114.679 38.4C114.819 37.61 114.959 36.82 115.089 36.04C115.359 34.47 115.629 32.94 115.879 31.45C116.199 29.57 116.509 27.76 116.799 26.05C117.289 23.19 117.729 20.59 118.129 18.33C118.149 18.21 118.169 18.07 118.189 17.94C118.249 17.55 118.309 17.15 118.349 16.72C118.379 16.44 118.399 16.14 118.419 15.85C118.429 15.55 118.439 15.25 118.439 14.95C118.439 14.85 118.429 14.74 118.419 14.64C118.409 14.44 118.409 14.24 118.389 14.04C118.149 11.44 116.939 8.94 113.219 8.31C113.149 8.3 113.079 8.29 112.999 8.28C112.479 8.2 111.909 8.16 111.289 8.16H111.269C110.739 8.16 110.179 8.18 109.569 8.25C105.269 8.8 102.629 12.12 101.009 15.81C100.839 16.2 100.679 16.59 100.529 16.99C100.319 17.54 100.139 18.09 99.9694 18.64C99.7994 19.19 99.6494 19.73 99.5194 20.26C99.3194 21.05 99.1594 21.82 99.0294 22.53C98.9794 22.81 98.9294 23.07 98.8894 23.32C98.8294 23.7 98.7694 24.05 98.7294 24.38C98.6694 24.81 98.6294 25.2 98.5894 25.54C98.5594 25.81 98.5394 26.04 98.5194 26.24C98.5194 26.26 98.5194 26.28 98.5194 26.29C98.5094 26.48 98.4994 26.62 98.4894 26.71C98.4894 26.77 98.4794 26.81 98.4794 26.83C98.7194 26.75 98.9594 26.68 99.1994 26.62C99.5094 26.54 99.8294 26.46 100.159 26.39C100.739 26.27 101.329 26.17 101.919 26.09C102.129 26.06 102.329 26.03 102.549 26.01C102.619 26 102.689 26 102.759 25.99C103.689 25.89 104.609 25.83 105.489 25.83C105.579 25.83 105.669 25.83 105.759 25.83C105.849 25.83 105.939 25.83 106.029 25.83C106.349 25.84 106.669 25.85 106.969 25.87C107.289 25.89 107.599 25.92 107.889 25.95V27.59C107.879 27.59 107.849 27.6 107.819 27.6C107.809 27.6 107.809 27.6 107.799 27.6C102.019 28.36 97.2094 32.36 95.6194 37.9C95.2694 39.12 94.8994 40.52 94.5394 42.1C94.4494 42.49 94.3594 42.9 94.2694 43.32C93.5594 46.65 92.9094 50.68 92.5294 55.28C92.3894 57.01 92.2894 58.81 92.2394 60.7C93.1294 60.15 94.2794 59.75 95.4894 59.41C95.5294 59.4 95.5694 59.39 95.6194 59.38C95.6394 59.37 95.6694 59.37 95.6894 59.36C96.1494 59.24 96.5894 59.11 97.0694 59.01C97.7194 58.88 98.3594 58.78 99.0094 58.7C99.8094 58.6 100.589 58.53 101.349 58.49C101.529 58.48 101.729 58.45 101.909 58.45C102.229 58.44 102.589 58.4 102.889 58.4V60.36C102.839 60.36 102.739 60.37 102.579 60.38C102.339 60.4 101.979 60.46 101.509 60.55C101.039 60.64 100.479 60.79 99.8294 60.99C98.4394 61.43 97.1294 62.04 95.9194 62.79C94.7794 63.5 93.7094 64.33 92.7494 65.27L92.7294 65.29C91.1894 66.81 89.9194 68.59 88.9794 70.56C88.8194 70.89 88.6694 71.22 88.5194 71.55C88.4394 71.71 88.3694 71.88 88.2994 72.04C88.0794 72.52 87.8694 73 87.6694 73.49C87.3294 74.29 87.0094 75.1 86.7094 75.93C86.5194 76.43 86.3394 76.95 86.1694 77.47C86.0694 77.77 85.9694 78.08 85.8694 78.4C85.7894 78.63 85.7194 78.87 85.6494 79.11C85.4994 79.59 85.3594 80.08 85.2094 80.59C85.1394 80.84 85.0694 81.09 84.9994 81.36C84.8594 81.88 84.7194 82.41 84.5794 82.96C84.4494 83.46 84.3294 83.97 84.1994 84.49C84.1694 84.61 84.1394 84.74 84.1094 84.86C83.9294 85.62 83.7594 86.4 83.5794 87.23C83.4794 87.69 83.3794 88.15 83.2794 88.64C83.1494 89.25 83.0294 89.87 82.8994 90.52C82.8294 90.88 82.7494 91.25 82.6794 91.62C82.3194 93.5 81.9394 95.54 81.5394 97.8C80.1094 98.87 78.6894 100.08 77.3294 101.34C77.3094 101.36 77.2894 101.38 77.2694 101.4C76.5994 102.02 75.9394 102.65 75.2994 103.28C72.4494 106.11 69.9894 108.94 68.4094 110.85C67.2294 112.27 66.5294 113.17 66.5194 113.17L66.0994 113.04L64.6094 112.58C65.2694 111.48 65.9194 110.37 66.5294 109.34C68.1294 106.64 69.3794 104.5 69.3794 104.5L67.5294 66.14C67.5294 65.88 67.5094 65.49 67.4794 64.98C67.4594 64.73 67.4394 64.45 67.4194 64.13C67.3794 63.66 67.3394 63.14 67.2894 62.55C66.7894 57.08 65.5894 46.7 64.1294 36.43C64.0394 35.81 63.9494 35.18 63.8594 34.56C63.7894 34.1 63.7294 33.63 63.6594 33.18C63.5694 32.55 63.4694 31.92 63.3794 31.3C63.3094 30.84 63.2394 30.38 63.1694 29.93C63.0794 29.33 62.9794 28.73 62.8894 28.14C62.8694 28.03 62.8494 27.92 62.8394 27.81C62.7394 27.17 62.6294 26.54 62.5294 25.91C62.3094 24.55 62.0794 23.23 61.8494 21.96C61.7494 21.37 61.6394 20.8 61.5294 20.24C61.4094 19.58 61.2794 18.94 61.1594 18.32C61.0994 18.03 61.0494 17.75 60.9894 17.47C60.9194 17.14 60.8594 16.82 60.7894 16.51C60.6894 16.02 60.5794 15.54 60.4794 15.08C60.3694 14.58 60.2494 14.1 60.1394 13.64C60.0294 13.18 59.9194 12.74 59.7994 12.33C59.7494 12.12 59.6894 11.92 59.6294 11.73C59.5594 11.49 59.4694 11.28 59.3594 11.08C58.9094 10.28 58.1194 9.77 57.1494 9.48C56.4194 9.26 55.5894 9.17 54.7294 9.17C53.4394 9.17 52.0694 9.38 50.8494 9.7C50.1194 9.89 49.4394 10.12 48.8694 10.38C43.7894 12.6 42.0694 17.61 41.7394 22.56C41.6894 23.26 41.6794 23.97 41.6794 24.66C41.6894 26.05 41.7894 27.4 41.9294 28.65C41.9994 29.23 42.0794 29.78 42.1594 30.3C42.1694 30.38 42.1794 30.46 42.1994 30.54C42.3594 31.56 42.5394 32.45 42.7094 33.18C42.8094 33.62 42.8994 34.01 42.9794 34.32C43.0494 34.6 43.1094 34.82 43.1494 34.97C43.1894 35.12 43.2194 35.2 43.2194 35.21C43.2294 35.2 43.2494 35.2 43.2594 35.19C43.8094 34.8 44.4294 34.43 45.1094 34.08C47.4194 32.85 50.3994 31.89 53.8994 31.89C53.9694 31.89 54.0394 31.89 54.1094 31.89H54.2094L54.1194 32.87L54.0294 33.85C52.4994 33.85 51.0594 34.21 49.7894 34.83C49.5394 34.95 49.2994 35.08 49.0694 35.22C48.6394 35.48 48.2194 35.76 47.8294 36.09C46.6394 37.08 45.6994 38.36 45.1094 39.81C44.6394 40.97 44.3894 42.25 44.4194 43.59C44.4794 46.22 44.8194 48.96 45.5194 52.52C45.8694 54.3 46.3094 56.28 46.8494 58.55C47.0094 59.23 47.1894 59.94 47.3694 60.68C47.7894 62.4 48.2594 64.27 48.7894 66.32C51.2894 65.33 54.3994 64.69 56.6194 64.32C58.0094 64.09 59.0494 63.97 59.3594 63.94L59.8194 66.28C59.7394 66.29 59.6594 66.31 59.5794 66.32C59.5794 66.32 59.5794 66.32 59.5694 66.32C59.5494 66.32 59.5394 66.32 59.5194 66.33C59.2394 66.37 58.9694 66.43 58.6994 66.5C58.6194 66.52 58.5394 66.53 58.4594 66.55C56.3294 67.07 54.4294 68.11 52.8894 69.52C52.8494 69.56 52.8094 69.59 52.7694 69.62C52.6294 69.75 52.4994 69.89 52.3694 70.03C52.2494 70.16 52.1194 70.28 51.9994 70.41C51.9594 70.46 51.9194 70.51 51.8794 70.55C50.0494 72.64 48.9094 75.3 48.7894 78.21C48.7894 78.23 48.7894 78.26 48.7894 78.28C48.7894 78.29 48.7894 78.29 48.7894 78.3C48.7694 78.72 48.7594 79.12 48.7494 79.53C48.7394 79.86 48.7294 80.19 48.7194 80.52C48.7094 80.93 48.7094 81.34 48.7094 81.75C48.7094 82.09 48.6994 82.42 48.6994 82.75C48.6994 83.14 48.7094 83.53 48.7094 83.91C48.7094 84.25 48.7194 84.6 48.7194 84.93C48.7294 85.31 48.7394 85.67 48.7494 86.05C48.7594 86.39 48.7694 86.74 48.7794 87.08C48.7894 87.44 48.8194 87.79 48.8294 88.15C48.8494 88.49 48.8594 88.84 48.8794 89.18C48.8994 89.53 48.9294 89.88 48.9494 90.23C48.9694 90.56 48.9894 90.9 49.0194 91.22C49.0494 91.57 49.0794 91.91 49.1094 92.25C49.1394 92.57 49.1594 92.89 49.1894 93.21C49.2194 93.56 49.2594 93.9 49.2894 94.25C49.3194 94.54 49.3494 94.84 49.3794 95.13C49.4194 95.46 49.4494 95.77 49.4894 96.09C49.5294 96.39 49.5594 96.69 49.5894 96.98C49.6294 97.28 49.6694 97.57 49.6994 97.86C49.7394 98.16 49.7794 98.46 49.8194 98.75C49.8594 99.03 49.8994 99.31 49.9394 99.59C49.9794 99.88 50.0194 100.17 50.0694 100.44C50.1094 100.71 50.1494 100.97 50.1994 101.23C50.2394 101.5 50.2894 101.78 50.3294 102.04C50.3894 102.41 50.4494 102.76 50.5194 103.12C50.5394 103.26 50.5694 103.41 50.5894 103.55C50.8494 105.02 51.1194 106.34 51.3594 107.5L50.8494 107.15L50.0294 106.6C49.2694 106.09 48.5494 105.67 47.8294 105.23C47.7594 105.19 47.6994 105.15 47.6294 105.11C47.3794 104.96 47.1394 104.8 46.8994 104.65C46.8494 104.62 46.7994 104.58 46.7494 104.56C46.7394 104.55 46.7294 104.55 46.7194 104.54C46.5394 104.44 46.3594 104.35 46.1794 104.25C45.7394 104.01 45.2994 103.77 44.8594 103.54C44.4294 103.31 43.9994 103.1 43.5894 102.91C43.4594 102.85 43.3494 102.81 43.2194 102.75C42.3194 102.34 41.4394 101.99 40.6094 101.72C40.5694 101.71 40.5294 101.69 40.4794 101.68C40.3694 101.65 40.2694 101.62 40.1594 101.59C39.3794 101.35 38.6194 101.15 37.8894 101.03C37.8294 101.02 37.7794 101.02 37.7294 101.01C37.6794 101.01 37.6394 101 37.5894 100.99C37.0794 100.92 36.5794 100.86 36.0994 100.84C36.0794 100.84 36.0594 100.84 36.0394 100.84H35.9494H35.9294H35.8794C35.7594 100.84 35.6394 100.85 35.5294 100.86C35.4094 100.87 35.2994 100.88 35.1794 100.89C34.9294 100.9 34.6794 100.9 34.4394 100.93C34.2494 100.96 34.0794 101.01 33.8994 101.05C33.5494 101.12 33.1894 101.19 32.8694 101.31C32.6094 101.41 32.3594 101.51 32.1094 101.63C31.8594 101.74 31.6294 101.88 31.3994 102.03C30.9294 102.39 30.4094 102.79 29.8894 103.22C29.4994 103.55 29.0994 103.89 28.7194 104.24C27.5694 105.31 26.5394 106.49 26.0894 107.68C25.5194 109.17 25.4894 111.08 25.8894 113.34C25.9594 113.72 26.0394 114.1 26.1294 114.5C26.3094 115.29 26.5394 116.12 26.8094 116.99C26.9494 117.42 27.0894 117.87 27.2494 118.32C27.5594 119.22 27.9194 120.15 28.3094 121.12C28.8994 122.57 29.5694 124.09 30.2994 125.67C30.5494 126.2 30.7994 126.73 31.0594 127.27C31.3594 127.2 31.6494 127.14 31.9394 127.08C32.7094 126.91 33.4694 126.75 34.2094 126.6H34.2194C34.4094 126.56 34.5994 126.53 34.7894 126.5C35.0794 126.44 35.3794 126.4 35.6694 126.35C36.3394 126.24 37.0094 126.14 37.6694 126.05H37.6794C37.7394 126.04 37.7994 126.03 37.8594 126.02C38.8294 125.9 39.8194 125.84 40.8094 125.79C40.8994 125.79 40.9894 125.79 41.0794 125.78C41.2594 125.78 41.4394 125.77 41.6094 125.77C41.7694 125.77 41.9294 125.77 42.0894 125.76C42.1694 125.76 42.2494 125.76 42.3394 125.76C42.8994 125.76 43.4594 125.77 44.0394 125.8C44.0994 125.8 44.8594 125.84 44.9194 125.84C45.9094 125.91 46.9294 126 47.9894 126.15L48.2394 126.19C48.3194 126.2 48.4094 126.21 48.4894 126.22C49.7194 126.41 50.9794 126.63 52.3294 126.94C52.3294 126.94 51.5094 121.02 48.1594 115.78C48.0294 115.57 47.8994 115.36 47.7594 115.16L48.1494 115.08L49.9894 114.7C50.3294 115.02 50.6594 115.36 50.9794 115.7C51.5194 116.29 52.0394 116.9 52.5194 117.51C52.7794 117.84 53.0294 118.18 53.2694 118.51C53.4494 118.76 53.6294 119.02 53.7994 119.27C53.9394 119.47 54.0694 119.67 54.1994 119.87C57.0094 124.18 58.4294 128.29 58.4294 128.29C59.5194 128.36 60.6394 128.5 61.7694 128.69C63.9194 129.05 66.1194 129.6 68.3194 130.29C69.2694 130.59 70.2094 130.9 71.1494 131.24L97.3494 141.99L97.2294 143.41L97.1294 144.61L79.0494 138.38L69.6794 135.15C69.5994 135.12 69.5294 135.09 69.4494 135.06C68.2894 134.56 67.0994 134.14 65.8794 133.79C65.2594 133.61 64.6294 133.43 63.9894 133.28C63.9794 133.28 63.9694 133.27 63.9594 133.27C63.4894 133.15 62.8594 133.04 62.1094 132.93C61.9194 132.9 61.7294 132.88 61.5194 132.85C61.2894 132.82 61.0494 132.78 60.7994 132.75C60.4194 132.7 60.0294 132.65 59.6194 132.6C59.3494 132.56 59.0794 132.53 58.7994 132.49C58.5494 132.46 58.2994 132.43 58.0494 132.39C57.5394 132.32 57.0094 132.25 56.4794 132.18C55.9494 132.11 55.3994 132.03 54.8594 131.95C54.3094 131.87 53.7594 131.79 53.2094 131.7C51.1094 131.36 48.9594 130.93 46.8094 130.58C45.1894 130.32 43.5794 130.1 41.9794 130.02C41.4494 129.99 40.9094 129.97 40.3894 129.97C39.9394 129.97 39.4894 129.98 39.0394 130.01C36.3194 130.17 33.9594 130.71 32.0194 131.56C31.4894 131.79 30.9894 132.06 30.5194 132.34C30.1094 132.58 29.7294 132.84 29.3794 133.11C26.8494 135.03 25.5594 137.68 25.7394 140.67C25.8094 141.92 26.1594 143.18 26.7094 144.39L38.1294 145.11C38.1494 144.79 38.1894 144.46 38.2194 144.14C38.2594 143.82 38.2994 143.49 38.3494 143.17C38.5794 141.76 38.9394 140.36 39.4694 139.03C39.7194 138.37 40.0394 137.74 40.3794 137.13C40.4894 136.92 40.5994 136.71 40.7194 136.51H43.3694C42.3494 138.54 41.8494 140.57 41.6494 142.4C41.5694 143.13 41.5294 143.83 41.5294 144.48C41.5194 147.42 42.1694 149.45 42.1694 149.45L40.9794 149.38L39.9994 149.32L29.6794 148.67C29.9494 148.95 30.2394 149.21 30.5394 149.47C31.8994 150.65 33.4594 151.6 35.1194 152.2C35.5994 152.38 36.0894 152.53 36.5794 152.64C39.6294 153.33 42.9794 154.04 45.2494 154.35C46.0394 154.46 46.8294 154.51 47.6294 154.51C48.4994 154.51 49.3694 154.45 50.2294 154.35C50.5194 154.32 50.7994 154.28 51.0894 154.24C50.9294 154.02 50.7794 153.79 50.6394 153.55C50.3694 153.08 50.1594 152.6 49.9894 152.12C49.8194 151.64 49.7094 151.15 49.6194 150.67C49.5394 150.2 49.4894 149.73 49.4694 149.28C49.4594 149.06 49.4594 148.84 49.4594 148.63C49.4694 146.95 49.8194 145.71 49.8194 145.71C50.5194 147.5 51.4794 149.08 52.5294 150.44C52.5394 150.46 52.5494 150.47 52.5694 150.49C54.1894 152.58 56.2294 154.32 58.4694 155.75L77.3294 167.75L76.5494 168.67L73.1694 167.21L69.2494 165.52C68.1294 165.03 66.9594 164.81 65.8194 164.81C63.9394 164.81 62.1294 165.43 60.6494 166.52C60.6194 166.54 60.5894 166.57 60.5594 166.59C60.3994 166.71 60.2394 166.84 60.0894 166.97C59.9694 167.08 59.8494 167.19 59.7294 167.31C59.6794 167.36 59.6394 167.4 59.5994 167.45C58.9894 168.07 58.4794 168.79 58.0994 169.61C58.0794 169.65 58.0694 169.68 58.0494 169.71C57.9694 169.89 57.8894 170.07 57.8194 170.25C57.7594 170.4 57.7094 170.56 57.6594 170.72C57.6394 170.8 57.6094 170.87 57.5794 170.95C57.5694 170.98 57.5594 171.01 57.5594 171.04V171.05C57.0194 173.03 56.6594 175.07 56.5194 177.1C56.4794 177.61 56.4594 178.12 56.4494 178.62C56.4394 179.13 56.4394 179.63 56.4594 180.14C56.4994 181.15 56.5894 182.16 56.7494 183.15C57.1294 185.63 57.9194 188.01 59.1094 190.16C59.3494 190.59 59.5994 191.01 59.8694 191.42C60.4094 192.24 61.0094 193.02 61.6794 193.74C64.3294 196.66 67.9494 198.67 71.8894 199.9L73.8294 200.51L70.0994 211.62C70.0794 211.69 70.0194 211.72 69.9594 211.72C69.8894 211.72 69.8194 211.67 69.8094 211.59L68.8994 204.03C65.3894 202.75 62.0194 200.86 59.2394 198.24C59.2194 198.22 59.1994 198.2 59.1694 198.18C58.7694 197.8 58.3894 197.41 58.0094 197C55.6194 194.41 53.9094 191.29 52.8494 188C52.4094 186.65 52.0794 185.27 51.8694 183.89C51.1294 179.13 51.5594 174.32 52.7794 169.78C52.8994 169.36 53.0194 168.94 53.1494 168.53C53.4094 167.7 53.6894 166.87 53.9994 166.06C54.2694 165.37 54.5594 164.69 54.8594 164.01C54.9994 163.7 55.1494 163.39 55.2994 163.08C55.5694 162.52 55.8594 161.96 56.1594 161.41C56.2294 161.28 56.2994 161.16 56.3694 161.03C56.5294 160.74 56.6994 160.45 56.8694 160.17L56.6394 160.07L54.6594 158.42C54.1194 158.65 53.1794 158.92 52.2194 159.09C52.0294 159.12 51.8394 159.16 51.6494 159.18C51.2694 159.23 50.8994 159.26 50.5594 159.26C49.9794 159.26 49.3794 159.24 48.7694 159.19C48.4694 159.17 48.1594 159.14 47.8594 159.11C47.2894 159.05 46.7294 158.98 46.1794 158.89C45.5094 158.79 44.8694 158.67 44.2794 158.56C44.0694 158.52 43.8594 158.47 43.6594 158.43C43.7394 159.06 43.7794 159.66 43.7794 160.25C43.7794 160.54 43.7694 160.83 43.7494 161.1C43.5394 164.51 41.9694 167 39.6094 168.5C39.4594 168.6 39.3094 168.69 39.1594 168.77C38.7294 169.01 38.2694 169.21 37.7894 169.39C37.0794 169.65 36.3394 169.86 35.5494 169.98C34.8894 170.08 34.1994 170.14 33.4994 170.14H33.4594C32.0594 170.14 30.5694 169.98 29.0694 169.53C17.0694 165.94 11.4794 151.99 11.4794 151.99C11.4294 152.83 11.5394 153.83 11.7494 154.92C11.8394 155.37 11.9294 155.83 12.0494 156.31C12.1494 156.72 12.2594 157.14 12.3794 157.56C13.0594 159.95 13.9994 162.53 14.8494 164.84C15.6594 167.03 16.3794 168.98 16.6894 170.25C19.5894 182.08 24.3894 189.98 29.2594 194.74C30.2794 195.73 31.3594 196.56 32.3694 197.39C39.5394 203.25 50.6294 203.66 50.6294 203.66L32.5094 203.82L31.4694 222.96H26.4294L26.2494 197.46C19.5994 191.53 14.8194 182.78 12.0194 171.36C11.7794 170.38 11.1094 168.57 10.4094 166.65C8.1694 160.56 6.4694 155.59 6.6794 151.73L7.0094 145.74C6.7394 145.09 6.4994 144.43 6.2694 143.75C6.2294 143.65 6.1694 143.5 6.0994 143.3C3.9194 137.66 1.4894 129.57 5.5694 124.34L6.0394 123.73C7.2994 122.09 8.4894 120.55 10.4594 119.49C12.5594 118.36 14.6894 117.79 16.8094 117.79C18.8194 117.79 20.7394 118.3 22.4494 119.29C20.5194 113.52 20.2594 109.33 21.5294 106.03C22.7194 102.93 25.5294 100.48 28.3994 98.3L28.5294 98.2L28.6694 98.11C29.3994 97.63 30.1994 97.23 31.1694 96.88C31.8094 96.65 32.4094 96.53 32.8094 96.45L32.8794 96.43C33.1394 96.37 33.3994 96.31 33.7094 96.27C34.1194 96.22 34.4794 96.2 34.7094 96.2L34.8394 96.19L34.9694 96.18C35.2494 96.16 35.5294 96.14 35.8194 96.14H35.8994H35.9794H36.1194H36.1994C36.7694 96.16 37.3694 96.21 38.1194 96.32C38.2894 96.34 38.4694 96.36 38.6494 96.39C39.6794 96.57 40.7794 96.84 41.9594 97.22L42.0394 97.25L42.0694 97.26C42.9294 97.54 43.8394 97.9 44.8394 98.34C44.0694 92.43 43.5694 85.49 43.8894 78.09C43.9794 76.01 44.4494 74.01 45.2294 72.17L44.0394 67.52C41.0294 55.79 39.6594 49.57 39.5294 43.73C39.5094 42.72 39.5894 41.73 39.7694 40.76L38.5194 36.61C35.8594 27.8 34.6194 11.45 46.8294 6.12C49.1394 5.11 52.0594 4.5 54.6494 4.5C59.5494 4.5 63.1094 6.75 64.1794 10.52C67.8094 23.31 72.1994 60.75 72.2694 66.07L73.8494 98.07C74.9594 97.04 76.0494 96.09 77.1094 95.24C79.2794 83.32 80.8094 77.48 83.1994 71.79C84.3494 69.05 85.7394 66.62 87.3294 64.53L87.4394 60.61C87.7194 50.05 89.5294 41.75 90.9994 36.65C91.5494 34.73 92.3994 32.93 93.4894 31.32L93.6694 26.69C93.6994 25.82 94.6494 5.42 108.929 3.59C109.819 3.47 110.629 3.46001 111.239 3.46001H111.249H111.259C118.119 3.46001 122.559 7.26999 123.149 13.65C123.189 14.06 123.209 14.48 123.219 14.93C123.299 15.59 123.259 16.36 123.179 17.15Z" fill="#D80D83"/>
<path d="M20.8891 123.84C20.5191 123.54 20.0891 123.28 19.6191 123.06C19.3091 122.91 18.9691 122.78 18.6191 122.69C18.2591 122.59 17.8891 122.52 17.4891 122.48C17.2891 122.46 17.0891 122.46 16.8791 122.46C16.5791 122.46 16.2691 122.48 15.9491 122.52C15.7891 122.54 15.6291 122.57 15.4591 122.6C15.2591 122.64 15.0491 122.69 14.8391 122.75C14.1991 122.93 13.5291 123.2 12.8291 123.57C12.6791 123.65 12.5291 123.74 12.3891 123.84C11.4991 124.46 10.7691 125.43 9.80912 126.68C9.68912 126.83 9.56912 126.98 9.44912 127.15C8.73912 128.06 8.38912 129.23 8.27912 130.52C8.18912 131.63 8.26912 132.82 8.45912 134C9.04912 137.75 10.6591 141.45 10.8991 142.16C12.1091 145.78 14.0191 149.04 16.2391 152.22C16.7291 152.93 17.2391 153.63 17.7591 154.33C18.1291 154.83 18.4991 155.34 18.8791 155.84C19.1791 156.24 19.4891 156.65 19.7991 157.05C20.4491 157.91 21.1091 158.77 21.7591 159.64C21.8891 159.81 22.0191 159.98 22.1491 160.14C22.2391 160.26 22.3391 160.38 22.4291 160.5C22.7691 160.92 23.0991 161.33 23.4391 161.71C23.6291 161.92 23.8191 162.13 23.9991 162.33C26.2491 164.74 28.4891 166.28 30.7391 166.53C31.2491 166.61 31.7491 166.65 32.2291 166.65C34.4891 166.65 36.3091 165.79 37.5091 164.55C37.5291 164.53 37.5391 164.51 37.5491 164.5C37.8891 164.14 38.1791 163.75 38.4091 163.34C38.5391 163.11 38.6491 162.87 38.7391 162.63C38.8291 162.39 38.9091 162.15 38.9691 161.9C39.5291 159.46 38.2491 156.78 34.3991 155.71C34.2191 155.66 34.0391 155.62 33.8491 155.59C33.6691 155.56 33.4791 155.55 33.2991 155.55C32.9691 155.55 32.6391 155.59 32.3091 155.66C31.4891 155.84 30.6791 156.24 29.9391 156.73C29.7891 156.83 29.6491 156.93 29.4991 157.03C28.5291 157.75 27.6891 158.61 27.0991 159.35C26.9991 159.48 26.8991 159.6 26.8091 159.72L25.6591 159.14L24.8791 158.75C25.0691 158.39 25.3791 157.81 25.9291 157.03C26.2691 156.55 26.6991 155.99 27.2491 155.35C27.2891 155.31 27.3191 155.27 27.3591 155.23C27.8391 154.68 28.4091 154.07 29.0691 153.42C25.6391 151.39 22.6791 148.9 21.3791 144.98C21.0291 143.91 20.7991 142.74 20.7091 141.44C20.6791 141 20.6691 140.56 20.6791 140.1C20.6891 139.64 20.7091 139.16 20.7491 138.67C20.7891 138.34 20.8491 137.99 20.9291 137.63C21.0091 137.27 21.0991 136.89 21.2191 136.5C21.3391 136.11 21.4791 135.71 21.6491 135.31C21.7291 135.11 21.8291 134.9 21.9291 134.7C22.1291 134.29 22.3591 133.88 22.6191 133.47C22.7491 133.27 22.8891 133.06 23.0391 132.86C23.4791 132.25 23.9991 131.66 24.6191 131.09C25.2291 130.52 25.9391 129.98 26.7491 129.49C26.6691 129.37 26.5891 129.25 26.4991 129.13C25.1691 127.32 22.4791 125.1 20.8891 123.84Z" fill="#D80D83"/>
<path d="M220.749 160L196.029 104.45H168.989L210.799 192.68H230.699L272.509 104.45H245.469L220.749 160Z" fill="#D80D83"/>
<path d="M440.62 101.83C413.13 101.83 390.85 122.75 390.85 148.56C390.85 174.37 413.13 195.29 440.62 195.29C461.88 195.29 480.02 182.78 487.14 165.16H459.8C455.04 170.02 448.2 173.06 440.61 173.06C428.71 173.06 418.68 165.58 415.55 155.37H489.84C490.19 153.15 490.37 150.87 490.37 148.56C490.37 145.23 490 141.97 489.29 138.84C484.53 117.69 464.55 101.83 440.62 101.83ZM416.66 138.84C420.66 130.15 429.89 124.06 440.62 124.06C451.35 124.06 460.57 130.15 464.57 138.84H416.66Z" fill="#D80D83"/>
<path d="M334.539 101.83C324.639 101.83 315.449 104.83 307.839 109.94V76.5703L283.449 84.1703V192.68H306.669L306.759 186.4C314.569 191.98 324.149 195.3 334.539 195.3C360.739 195.3 381.989 174.38 381.989 148.56C381.979 122.75 360.739 101.83 334.539 101.83ZM332.359 172.93C318.699 172.93 307.619 162.02 307.619 148.56C307.619 135.1 318.699 124.19 332.359 124.19C346.019 124.19 357.099 135.1 357.099 148.56C357.099 162.02 346.019 172.93 332.359 172.93Z" fill="#D80D83"/>
<path d="M550.36 125.36V104.45H525.48V76.4004L500.6 84.1804V148.57C500.6 174.39 519.51 195.3 547.05 195.3H550.37V173.08C536.6 173.08 525.49 162.13 525.49 148.57V125.37L550.36 125.36Z" fill="#D80D83"/>
<path d="M566.189 76.3297C564.999 76.3297 563.869 75.8397 562.989 74.9397C561.449 73.3397 561.249 70.7297 562.529 68.8397L573.799 52.3997L555.119 50.5097C553.089 50.3397 551.399 48.9397 550.759 46.8797C550.089 44.8197 550.639 42.6697 552.149 41.2097L581.199 13.9297C582.009 13.1497 583.119 12.6797 584.249 12.6797C585.439 12.6797 586.569 13.1697 587.449 14.0697C588.989 15.6397 589.189 18.2797 587.909 20.1697L576.639 36.6097L595.319 38.4997C597.349 38.6997 599.039 40.0997 599.709 42.1597C600.349 44.1897 599.799 46.3697 598.289 47.8297L569.239 75.1097C568.429 75.8997 567.349 76.3297 566.189 76.3297Z" fill="#D80D83"/>
</svg>
