<svg width="212" height="28" viewBox="0 0 212 28" fill="none" xmlns="http://www.w3.org/2000/svg">
    <path d="M64.9043 14.0781H51.0332V10.041H67.8027V4.45117H42.959V25.1543H51.0332V19.5645H64.9043V14.0781Z" fill="#ff267e"/>
    <path d="M109.002 18.2188L101.652 4.45117H92.4395L104.344 25.1543H113.557L125.461 4.45117H116.352L109.002 18.2188Z" fill="#ff267e"/>
    <path d="M151.236 14.5957C153.307 13.5605 154.342 12.0078 154.342 10.1445C154.342 6.72852 151.443 4.45117 145.854 4.45117H127.635V25.1543H146.268C152.375 25.1543 155.066 22.7734 155.066 19.2539C154.963 17.3906 153.824 15.6309 151.236 14.5957ZM135.502 9.41992H144.508C145.543 9.41992 146.268 10.041 146.268 10.9727C146.268 11.9043 145.543 12.5254 144.508 12.5254H135.502V9.41992ZM145.129 20.1855H135.502V17.0801H145.129C146.164 17.0801 146.889 17.7012 146.889 18.6328C146.889 19.5645 146.164 20.1855 145.129 20.1855Z" fill="#ff267e"/>
    <path d="M166.867 17.0801H180.635V12.5254H166.867V10.041H182.187V4.45117H158.793V25.1543H182.498V19.5645H166.867V17.0801Z" fill="#ff267e"/>
    <path d="M185.811 4.45117V10.041H194.816V25.1543H202.994V10.041H212V4.45117H185.811Z" fill="#ff267e"/>
    <path d="M77.1191 4.45117L65.2148 25.1543H73.8066L75.4629 22.1523H88.1953L89.8516 25.1543H98.7539L86.8496 4.45117H77.1191V4.45117ZM78.2578 16.666L81.7773 10.041L85.2969 16.666H78.2578Z" fill="#ff267e"/>
    <path d="M0 12.5254L7.14258 25.1543H16.252L9.10938 12.5254H0Z" fill="#ff267e"/>
    <path d="M23.3945 12.5254L16.252 25.1543H25.4648L32.6074 12.5254H23.3945Z" fill="#ff267e"/>
    <path d="M16.252 0L9.10938 12.5254H23.3945L16.252 0Z" fill="#ff267e"/>
</svg>
