<svg width="102" height="101" viewBox="0 0 102 101" fill="none" xmlns="http://www.w3.org/2000/svg">
<path fill-rule="evenodd" clip-rule="evenodd" d="M51.4741 2.25361C77.8676 2.25361 99.2614 23.7531 99.2614 50.2772C99.2614 76.8014 77.8655 98.305 51.4741 98.305C44.5072 98.305 37.8938 96.8069 31.927 94.1164L31.9086 94.1067C31.573 93.9292 31.2046 93.84 30.8358 93.84C30.4586 93.84 30.0896 93.9343 29.7556 94.1126L29.7337 94.1243L29.7202 94.1325C22.4934 97.8247 15.7114 98.568 10.7346 98.3889C8.24251 98.2993 6.20593 97.9783 4.79836 97.6817C4.7619 97.6741 4.72585 97.6664 4.69023 97.6588C8.39089 95.2571 13.0197 91.8478 15.9838 84.346L15.9894 84.3317L15.9946 84.3173C16.2502 83.6047 16.1484 82.8269 15.7523 82.2145L15.7511 82.2121L15.7456 82.2043C15.7395 82.1949 15.7333 82.1856 15.7271 82.1763L15.587 81.9686L15.5452 81.9476C8.16152 73.4942 3.68686 62.4144 3.68686 50.2814C3.68686 23.7572 25.0807 2.25361 51.4741 2.25361ZM2.33584 98.0322C2.02344 98.9395 2.02436 98.9398 2.02436 98.9398L2.02891 98.9414L2.03913 98.9449C2.04753 98.9477 2.0591 98.9516 2.07378 98.9565C2.10313 98.9663 2.14495 98.9799 2.19889 98.997C2.30676 99.0311 2.46317 99.0788 2.66534 99.1361C3.06963 99.2506 3.65732 99.4032 4.40634 99.561C5.90389 99.8766 8.04963 100.214 10.6663 100.308C15.9005 100.496 23.0305 99.712 30.6166 95.8284L30.6461 95.8133L30.6681 95.8001C30.7263 95.7719 30.7827 95.7601 30.8358 95.7601C30.8685 95.7601 30.9012 95.7643 30.9334 95.7726L31.0776 95.8379C37.3028 98.6561 44.2059 100.225 51.4741 100.225C78.9206 100.225 101.172 77.8619 101.172 50.2772C101.172 22.6925 78.9226 0.333496 51.4741 0.333496C24.0255 0.333496 1.77637 22.6968 1.77637 50.2814C1.77637 62.9174 6.44571 74.4593 14.1447 83.2547C14.1492 83.2612 14.1543 83.2684 14.16 83.2763C14.2266 83.3889 14.2432 83.528 14.201 83.6554C11.2101 91.2109 6.48524 94.2352 2.70349 96.6558C2.40155 96.8491 2.10562 97.0385 1.81706 97.2261L0.171875 98.2955L2.02344 98.9395L2.33584 98.0322Z" fill="#FF5E00"/>
<path d="M21.6413 22.2298H24.0755L28.228 30.6276V22.2298H29.8993V33.7794H28.0168L23.2962 24.3741V33.7794H21.6413V22.2298Z" fill="white"/>
<path d="M36.1415 32.9866C35.6391 33.5311 34.9726 33.9607 33.9022 33.9774C32.3765 33.9774 31.3881 32.9387 31.3881 31.6016C31.3881 30.1498 32.5713 29.4406 33.611 29.1423L36.1251 28.4164V28.1203C36.1251 27.1962 35.5571 26.7352 34.665 26.7352C33.8386 26.7352 33.1722 27.2629 32.881 27.8574L32.8318 27.9555L31.5501 27.2629L31.6321 27.0982C31.9889 26.3556 32.9794 25.3335 34.8106 25.3335C36.6419 25.3335 37.8107 26.2742 37.8107 27.9742V32.3129C37.8107 32.7259 37.8271 33.2703 37.9071 33.6333L37.9399 33.7814H36.2522L36.2358 33.6979C36.1866 33.4664 36.1538 33.2369 36.1395 32.9887L36.1415 32.9866ZM34.341 32.6738C35.0875 32.6738 35.7519 32.2274 36.1251 31.7497V29.6701L34.3738 30.2145C33.7094 30.4293 33.125 30.7756 33.125 31.4848C33.125 32.194 33.5946 32.6738 34.341 32.6738Z" fill="white"/>
<path d="M40.0992 26.7671H38.8996V25.5302H40.0992V22.8894H41.7869V25.5302H43.4089V26.7671H41.7869V31.7837C41.7869 32.4261 42.1765 32.6097 42.6297 32.6097C42.9045 32.6097 43.2141 32.5263 43.4089 32.4616V33.7319C43.0193 33.8633 42.5169 33.9634 42.0617 33.9634C41.0568 33.9634 40.0992 33.5337 40.0992 32.1487V26.7671Z" fill="white"/>
<path d="M44.6415 22.2298H46.3292V23.9131H44.6415V22.2298ZM44.6415 25.5297H46.3292V33.7794H44.6415V25.5297Z" fill="white"/>
<path d="M47.5123 29.6528C47.5123 26.9808 48.7284 25.3308 50.9513 25.3308C53.1742 25.3308 54.3902 26.9808 54.3902 29.6528C54.3902 32.3248 53.1742 33.9748 50.9513 33.9748C48.7284 33.9748 47.5123 32.3248 47.5123 29.6528ZM50.9513 32.5897C52.0545 32.5897 52.6861 31.6657 52.6861 29.6528C52.6861 27.6399 52.0545 26.7159 50.9513 26.7159C49.848 26.7159 49.2164 27.6399 49.2164 29.6528C49.2164 31.6657 49.848 32.5897 50.9513 32.5897Z" fill="white"/>
<path d="M59.0124 26.816C58.348 26.816 57.6508 27.277 57.2611 27.6733V33.7787H55.5734V25.529H57.1791V26.4364C57.7964 25.7772 58.672 25.3308 59.5804 25.3308C61.2517 25.3308 61.9325 26.4697 61.9325 27.7067V33.7787H60.2448V28.0863C60.2448 27.2457 59.8224 26.816 59.0124 26.816Z" fill="white"/>
<path d="M67.9984 32.9866C67.496 33.5311 66.8296 33.9607 65.7591 33.9774C64.2334 33.9774 63.245 32.9387 63.245 31.6016C63.245 30.1498 64.4282 29.4406 65.4679 29.1423L67.982 28.4164V28.1203C67.982 27.1962 67.414 26.7352 66.522 26.7352C65.6955 26.7352 65.0291 27.2629 64.7379 27.8574L64.6887 27.9555L63.407 27.2629L63.489 27.0982C63.8459 26.3556 64.8363 25.3335 66.6675 25.3335C68.4988 25.3335 69.6677 26.2742 69.6677 27.9742V32.3129C69.6677 32.7259 69.6841 33.2703 69.764 33.6333L69.7968 33.7814H68.1092L68.0928 33.6979C68.0435 33.4664 68.0107 33.2369 67.9964 32.9887L67.9984 32.9866ZM66.1979 32.6738C66.9444 32.6738 67.6088 32.2274 67.982 31.7497V29.6701L66.2308 30.2145C65.5664 30.4293 64.9819 30.7756 64.9819 31.4848C64.9819 32.194 65.4515 32.6738 66.1979 32.6738Z" fill="white"/>
<path d="M71.5501 22.2298H73.2378V33.7794H71.5501V22.2298Z" fill="white"/>
<path d="M21.1227 43.0098C21.1227 38.8839 22.8903 36.8063 25.6813 36.8063C27.6109 36.8063 29.071 37.7638 29.477 39.9247L29.5426 40.271L27.8878 40.6339L27.8221 40.3211C27.5145 38.8693 26.7189 38.3082 25.6485 38.3082C24.1392 38.3082 22.9395 39.6452 22.9395 42.895C22.9395 45.9634 24.0264 47.2504 25.5521 47.2504C26.6389 47.2504 27.9042 46.6726 27.9042 44.643V44.2968H25.5193V42.8617H29.559V48.5541H28.1154L28.019 47.1524C27.4838 48.2912 26.4298 48.7522 25.1973 48.7522C22.7324 48.7522 21.1268 46.756 21.1268 43.0098H21.1227Z" fill="white"/>
<path d="M35.4936 47.7611C34.9912 48.3056 34.3248 48.7352 33.2543 48.7519C31.7286 48.7519 30.7402 47.7132 30.7402 46.3761C30.7402 44.9243 31.9235 44.2151 32.9631 43.9168L35.4772 43.1909V42.8947C35.4772 41.9707 34.9092 41.5097 34.0172 41.5097C33.1908 41.5097 32.5243 42.0374 32.2331 42.6319L32.1839 42.73L30.9022 42.0374L30.9843 41.8727C31.3411 41.1301 32.3315 40.108 34.1628 40.108C35.994 40.108 37.1629 41.0487 37.1629 42.7487V47.0874C37.1629 47.5004 37.1793 48.0448 37.2593 48.4078L37.2921 48.5559H35.6044L35.588 48.4724C35.5387 48.2409 35.5059 48.0114 35.4916 47.7632L35.4936 47.7611ZM33.6932 47.4482C34.4396 47.4482 35.104 47.0019 35.4772 46.5242V44.4446L33.726 44.989C33.0616 45.2038 32.4771 45.5501 32.4771 46.2593C32.4771 46.9685 32.9467 47.4482 33.6932 47.4482Z" fill="white"/>
<path d="M47.0757 41.5914C46.4113 41.5914 45.7141 42.0524 45.3244 42.4487V48.5541H43.6368V42.8617C43.6368 42.0211 43.2143 41.5914 42.4043 41.5914C41.7399 41.5914 41.0427 42.0524 40.6531 42.4487V48.5541H38.9654V40.3044H40.571V41.2118C41.1883 40.5527 42.0639 40.1063 42.9723 40.1063C44.1084 40.1063 44.7892 40.634 45.1132 41.3599C45.7305 40.6173 46.6697 40.1063 47.6437 40.1063C49.315 40.1063 49.9958 41.2452 49.9958 42.4821V48.5541H48.3081V42.8617C48.3081 42.0211 47.8857 41.5914 47.0757 41.5914Z" fill="white"/>
<path d="M53.1252 47.7947L52.9632 48.554H51.5359V37.0044H53.2236V40.9801C53.7096 40.419 54.456 40.1061 55.2353 40.1061C57.085 40.1061 58.3338 41.5079 58.3338 44.3134C58.3338 47.1189 57.0193 48.7522 55.1717 48.7522C54.3453 48.7522 53.5825 48.4059 53.1272 47.7947H53.1252ZM54.8436 47.365C55.8013 47.365 56.6113 46.4744 56.6113 44.3614C56.6113 42.2484 55.7684 41.5079 54.8108 41.5079C54.1628 41.5079 53.6276 41.8374 53.2215 42.2671V46.5745C53.644 47.0209 54.1956 47.3671 54.8436 47.3671V47.365Z" fill="white"/>
<path d="M59.839 37.0044H61.5266V48.554H59.839V37.0044Z" fill="white"/>
<path d="M63.4563 37.0044H65.1439V38.6877H63.4563V37.0044ZM63.4563 40.3043H65.1439V48.554H63.4563V40.3043Z" fill="white"/>
<path d="M70.5126 41.5914C69.8482 41.5914 69.151 42.0524 68.7614 42.4487V48.5541H67.0737V40.3044H68.6793V41.2118C69.2966 40.5527 70.1722 40.1063 71.0806 40.1063C72.7519 40.1063 73.4327 41.2452 73.4327 42.4821V48.5541H71.7451V42.8617C71.7451 42.0211 71.3226 41.5914 70.5126 41.5914Z" fill="white"/>
<path d="M74.5339 49.4611C74.5339 48.6852 75.1512 48.0594 76.0104 47.8779C75.3788 47.6965 75.0691 47.1854 75.0691 46.6243C75.0691 45.9652 75.508 45.4687 75.994 45.1892C75.3296 44.6782 74.9399 43.9022 74.9399 42.9615C74.9399 41.2949 76.2052 40.108 78.1021 40.108C78.9285 40.108 79.6277 40.3228 80.163 40.7025C80.6818 40.3562 81.4446 40.1914 82.0454 40.1914V41.5452H81.8342C81.543 41.5452 81.2498 41.5619 80.975 41.6119C81.1862 42.0082 81.299 42.4692 81.299 42.9657C81.299 44.6657 80.0338 45.8359 78.1041 45.8359C77.6181 45.8359 77.1628 45.7524 76.7568 45.6043C76.562 45.7858 76.482 45.984 76.482 46.1487C76.482 46.4616 76.6768 46.7098 77.1464 46.7432L79.6277 46.908C81.0058 46.9914 81.9306 47.5505 81.9306 48.8541C81.9306 50.5875 80.0481 51.4448 77.9729 51.4448C75.8976 51.4448 74.5339 50.7356 74.5339 49.4653V49.4611ZM78.0221 50.2371C79.4821 50.2371 80.1958 49.726 80.1958 49.1483C80.1958 48.7186 79.9681 48.4057 79.1089 48.3389L76.9188 48.1908C76.3344 48.4057 75.994 48.7853 75.994 49.1816C75.994 49.676 76.4472 50.2371 78.0221 50.2371ZM78.1041 44.528C78.9961 44.528 79.7262 44.0003 79.7262 42.9615C79.7262 41.9227 78.9961 41.4263 78.1041 41.4263C77.2121 41.4263 76.5148 41.954 76.5148 42.9615C76.5148 43.969 77.2449 44.528 78.1041 44.528Z" fill="white"/>
<path d="M20.8786 60.8678L20.8294 60.653L22.4515 60.0585L22.5171 60.338C22.7447 61.3288 23.4419 62.0547 24.74 62.0547C26.0381 62.0547 26.7189 61.2788 26.7189 60.338C26.7189 59.3973 26.1508 59.001 25.0004 58.5233L23.8008 58.0289C21.9511 57.2697 21.2375 56.3123 21.2375 54.8438C21.2375 53.0958 22.5355 51.594 24.8056 51.5773C27.1249 51.5773 28.0333 52.9477 28.3266 54.1179L28.3758 54.3161L26.8501 54.8271L26.7681 54.5789C26.4605 53.6548 25.8761 53.0437 24.822 53.0437C23.5896 53.0437 22.9887 53.8697 22.9887 54.6769C22.9887 55.5676 23.5075 55.9806 24.4816 56.4103L25.7633 56.938C27.6458 57.7307 28.5378 58.5713 28.5378 60.2212C28.5378 62.1507 27.0121 63.5211 24.742 63.5211C22.472 63.5211 21.2067 62.2842 20.8807 60.8637L20.8786 60.8678Z" fill="#FF5E00"/>
<path d="M29.8483 61.149V55.0769H31.536V60.7693C31.536 61.6099 31.9584 62.0563 32.7356 62.0563C33.4164 62.0563 34.13 61.5787 34.5197 61.199V55.0769H36.2073V63.3266H34.6017V62.436C34.0008 63.0784 33.1744 63.5248 32.2332 63.5248C30.5619 63.5248 29.8483 62.3859 29.8483 61.149Z" fill="#FF5E00"/>
<path d="M39.7426 62.6823V66.0656H38.0549V55.0771H39.5806L39.677 55.8364C40.1466 55.2252 40.9422 54.879 41.7523 54.879C43.6019 54.879 44.8508 56.2807 44.8508 59.0862C44.8508 61.8917 43.5363 63.525 41.6887 63.525C40.9258 63.525 40.2122 63.2121 39.7426 62.6844V62.6823ZM41.3647 62.1379C42.3223 62.1379 43.1323 61.2472 43.1323 59.1342C43.1323 57.0212 42.2895 56.2807 41.3319 56.2807C40.6839 56.2807 40.1486 56.6102 39.7426 57.0399V61.3473C40.165 61.7937 40.7167 62.1399 41.3647 62.1399V62.1379Z" fill="#FF5E00"/>
<path d="M48.0478 62.6823V66.0656H46.3601V55.0771H47.8858L47.9821 55.8364C48.4517 55.2252 49.2474 54.879 50.0574 54.879C51.9071 54.879 53.1559 56.2807 53.1559 59.0862C53.1559 61.8917 51.8415 63.525 49.9938 63.525C49.231 63.525 48.5174 63.2121 48.0478 62.6844V62.6823ZM49.6698 62.1379C50.6275 62.1379 51.4375 61.2472 51.4375 59.1342C51.4375 57.0212 50.5947 56.2807 49.637 56.2807C48.989 56.2807 48.4538 56.6102 48.0478 57.0399V61.3473C48.4702 61.7937 49.0218 62.1399 49.6698 62.1399V62.1379Z" fill="#FF5E00"/>
<path d="M54.4232 59.2009C54.4232 56.5289 55.6392 54.879 57.8621 54.879C60.085 54.879 61.3011 56.5289 61.3011 59.2009C61.3011 61.8729 60.085 63.5229 57.8621 63.5229C55.6392 63.5229 54.4232 61.8729 54.4232 59.2009ZM57.8621 62.1379C58.9654 62.1379 59.597 61.2138 59.597 59.2009C59.597 57.188 58.9654 56.264 57.8621 56.264C56.7589 56.264 56.1273 57.188 56.1273 59.2009C56.1273 61.2138 56.7589 62.1379 57.8621 62.1379Z" fill="#FF5E00"/>
<path d="M64.3812 55.0771V56.629C65.4516 55.3587 66.4093 54.9791 67.2193 54.9624V56.5623C66.0832 56.5623 65.1912 57.2047 64.494 57.8493V63.3268H62.8063V55.0771H64.3812Z" fill="#FF5E00"/>
<path d="M69.4914 56.3143H68.2918V55.0774H69.4914V52.4367H71.1791V55.0774H72.8012V56.3143H71.1791V61.3309C71.1791 61.9734 71.5687 62.1569 72.0219 62.1569C72.2967 62.1569 72.6064 62.0735 72.8012 62.0088V63.2791C72.4116 63.4105 71.9092 63.5107 71.4539 63.5107C70.4491 63.5107 69.4914 63.081 69.4914 61.6959V56.3143Z" fill="#FF5E00"/>
<path d="M21.6414 66.5524H24.0755L28.2281 74.9502V66.5524H29.8994V78.102H28.0169L23.2963 68.6967V78.102H21.6414V66.5524Z" fill="#FF5E00"/>
<path d="M31.3246 74.0905C31.3246 71.4831 32.6063 69.6517 34.8456 69.6517C36.4184 69.6517 38.0733 70.6091 38.0733 73.5794V74.3554H32.9795V74.4534C32.9795 76.0533 33.8059 76.944 34.9092 76.944C35.6228 76.944 36.2236 76.6478 36.6276 75.9052L36.724 75.7237L38.0549 76.3015L37.9728 76.4663C37.372 77.6865 36.3015 78.2977 34.8579 78.2977C32.8134 78.2977 31.3226 76.8292 31.3226 74.0905H31.3246ZM36.4841 73.2165V73.1017C36.4841 71.5999 35.7048 71.0388 34.8456 71.0388C33.9864 71.0388 33.1415 71.6979 32.9959 73.2165H36.4841Z" fill="#FF5E00"/>
<path d="M40.1648 71.0897H38.9652V69.8528H40.1648V67.2121H41.8525V69.8528H43.4746V71.0897H41.8525V76.1063C41.8525 76.7487 42.2421 76.9323 42.6953 76.9323C42.9701 76.9323 43.2798 76.8489 43.4746 76.7842V78.0545C43.085 78.1859 42.5826 78.286 42.1273 78.286C41.1225 78.286 40.1648 77.8564 40.1648 76.4713V71.0897Z" fill="#FF5E00"/>
<path d="M44.4796 69.8524H46.1672L47.4981 75.7429L48.9746 69.8524H50.5638L52.0075 75.7429L53.3855 69.8524H54.9256L52.8339 78.1021H51.1626L49.7026 72.2282L48.2261 78.1021H46.5712L44.4796 69.8524Z" fill="#FF5E00"/>
<path d="M55.6064 73.9754C55.6064 71.3034 56.8224 69.6535 59.0454 69.6535C61.2683 69.6535 62.4843 71.3034 62.4843 73.9754C62.4843 76.6475 61.2683 78.2974 59.0454 78.2974C56.8224 78.2974 55.6064 76.6475 55.6064 73.9754ZM59.0454 76.9124C60.1486 76.9124 60.7802 75.9883 60.7802 73.9754C60.7802 71.9625 60.1486 71.0385 59.0454 71.0385C57.9421 71.0385 57.3105 71.9625 57.3105 73.9754C57.3105 75.9883 57.9421 76.9124 59.0454 76.9124Z" fill="#FF5E00"/>
<path d="M65.5664 69.8525V71.4044C66.6368 70.1341 67.5945 69.7545 68.4045 69.7378V71.3377C67.2684 71.3377 66.3764 71.9801 65.6792 72.6247V78.1022H63.9915V69.8525H65.5664Z" fill="#FF5E00"/>
<path d="M69.557 66.5524H71.2447V73.5151L74.0028 69.8523H75.7541L73.484 72.7225L76.1929 78.102H74.3596L72.3315 74.0929L71.2447 75.478V78.102H69.557V66.5524Z" fill="#FF5E00"/>
</svg>
